/* XPM */
static char *_6[] = {
/* columns rows colors chars-per-pixel */
"45 45 161 2 ",
"   c gray18",
".  c #2C332C",
"X  c #333021",
"o  c #353825",
"O  c #37372D",
"+  c #3B342E",
"@  c #343C2E",
"#  c #3B2D3A",
"$  c #2F3739",
"%  c #2E3A38",
"&  c #353536",
"*  c #3C3335",
"=  c #343932",
"-  c #393A36",
";  c #36353B",
":  c #3B353B",
">  c #363D39",
",  c #3A3A3A",
"<  c #42362A",
"1  c #413533",
"2  c #4A373B",
"3  c #35412B",
"4  c #3C3A45",
"5  c #36304A",
"6  c #3C3849",
"7  c #6E007B",
"8  c #444444",
"9  c #494A49",
"0  c #445245",
"q  c #727D75",
"w  c #7B7E77",
"e  c #707F7C",
"r  c #7E7E7E",
"t  c #A5111D",
"y  c #B60A3C",
"u  c #BB343B",
"i  c #DE0203",
"p  c #D20900",
"a  c #D80B00",
"s  c #DE080A",
"d  c #DF1507",
"f  c #DD100B",
"g  c #DF0019",
"h  c #DD0314",
"j  c #D61613",
"k  c #DB1812",
"l  c #D51918",
"z  c #E50101",
"x  c #EB0102",
"c  c #E10900",
"v  c #E80800",
"b  c #E5020A",
"n  c #E9010A",
"m  c #E3080C",
"M  c #EC0A0C",
"N  c #F30102",
"B  c #F40309",
"V  c #F8030A",
"C  c #E60412",
"Z  c #ED0512",
"A  c #E7001E",
"S  c #F20013",
"D  c #D40424",
"F  c #E20021",
"G  c #E21323",
"H  c #AF4930",
"J  c #B2433A",
"K  c #920D42",
"L  c #9A1749",
"P  c #903558",
"I  c #A0384F",
"U  c #93696D",
"Y  c #866570",
"T  c #936774",
"R  c #857E73",
"E  c #89737F",
"W  c #847D7B",
"Q  c #73826B",
"!  c #7D8274",
"~  c #74837B",
"^  c #7D837D",
"/  c #718C79",
"(  c #7D8C79",
")  c #838375",
"_  c #888177",
"`  c #85837E",
"'  c #89817E",
"]  c #1E1D92",
"[  c #320993",
"{  c #1006B5",
"}  c #1D06B9",
"|  c #3613AF",
" . c #3939A9",
".. c #2A33BC",
"X. c #4A359C",
"o. c #7D7E83",
"O. c #747D84",
"+. c #666C90",
"@. c #66659E",
"#. c #7F7C91",
"$. c #0107CF",
"%. c #0905CE",
"&. c #030DCE",
"*. c #0B0ACD",
"=. c #1102C1",
"-. c #1709CE",
";. c #0016C3",
":. c #0305D4",
">. c #0B04D4",
",. c #020BD4",
"<. c #0C0AD4",
"1. c #0304DD",
"2. c #0C04DC",
"3. c #030BDB",
"4. c #0A0BDB",
"5. c #1104D2",
"6. c #120BD5",
"7. c #1303DA",
"8. c #1408D8",
"9. c #1A0EDE",
"0. c #0012D4",
"q. c #0012D9",
"w. c #0A13DC",
"e. c #201DC2",
"r. c #0404E3",
"t. c #0C06E3",
"y. c #0B0AE1",
"u. c #0908E8",
"i. c #1700E6",
"p. c #1904E4",
"a. c #100AE0",
"s. c #120AEB",
"d. c #1303EC",
"f. c #0914E2",
"g. c #827D84",
"h. c #8C7B83",
"j. c #827E8C",
"k. c #8D7D88",
"l. c #768384",
"z. c #7B8384",
"x. c #798881",
"c. c #7E828C",
"v. c #7F8B8B",
"b. c #818181",
"n. c #8A8184",
"m. c #83828C",
"M. c #F0FFE0",
"N. c #FFFDE2",
"B. c #F5FEEC",
"V. c #FEFEEC",
"C. c #EEFEF3",
"Z. c #EFF6FF",
"A. c #EEFDFD",
"S. c #F6F6F6",
"D. c #FDF6F4",
"F. c #F4FEF4",
"G. c #FDFDF5",
"H. c #F7F6FB",
"J. c #FEF6FD",
"K. c #F5FEFD",
"L. c #FEFEFE",
/* pixels */
"z x K.' K.G.J.L.y.&.2.G.G.K.J.K.L.L.L.L.L.L.- L.L.L.J.L.z N L.L.K.G.L.L.J.L.L.L.L.z.L.L.L.",
"L.z v E K.J.q.,.3.G.K.L.L.J.K.L.L.L.L.L.L.K.& L.L.L.A.J.K.m z K.L.J.S.L.F.K.K.L.L.n.K.D.L.",
"L.J.b J <.y.;.J.J.K.K.J.K.G.K.L.L.L.L.L.L.L., L.L.L.K.G.J.K.B N L.K.L.G.J.G.L.L.L.r L.L.H.",
"h.~  .D C a G m.^ z.! h.` ^ b.W r b.r b.r m.8 ` W ^ r w ` z.q H j W W o.x.g.( g.n.r z.W b.",
"3.y.$.l C z L.K.G.J.L.L.J.G.D.K.L.L.L.L.L.L., L.L.L.V.D.L.L.L.L.n b L.L.J.C.D.L.L.r L.L.L.",
"r.B.G.j b x x L.K.G.K.K.J.K.L.F.L.H.L.L.L.S.& L.K.H.L.G.G.K.J.G.K.x v J.L.L.K.J.L.^ L.L.L.",
"G.G.J.u v J.b c L.K.J.G.J.L.G.L.L.L.L.L.L.L.8 S.L.F.K.K.L.S.K.L.K.L.p z L.K.L.G.S.b.L.L.L.",
"J.K.L.) K.L.G.x n G.L.G.K.L.L.L.L.L.L.S.L.L.  L.D.L.L.G.L.J.G.K.L.J.L.b N L.J.K.L.r L.L.L.",
"L.L.L.b.L.L.L.L.x C G.K.J.G.L.K.L.J.L.K.K.L.- G.L.L.L.L.L.L.L.L.L.V.K.K.z N J.K.L.j.J.L.G.",
"L.L.L.r L.L.L.L.L.n z F.L.K.L.L.L.F.G.J.L.K.* J.L.L.L.L.L.L.L.L.L.L.F.J.L.z x K.L.` L.K.D.",
"L.L.L.b.L.L.L.L.L.L.x N J.K.Z.G.L.L.L.F.L.L.& K.L.L.L.L.L.L.L.L.D.L.K.J.L.J.z z K.) F.L.L.",
"L.L.L.r L.L.L.L.L.G.J.i z J.L.L.K.F.H.L.L.L.- L.L.L.L.L.L.L.L.L.L.F.J.K.K.K.w.7 n g.J.,.f.",
"L.L.L.g.L.L.L.L.L.L.K.K.b N F.G.J.L.K.J.L.F.2 J.L.L.L.L.L.L.L.L.G.K.K.J.V.L.2.4.-.| &.,.J.",
"L.L.L.^ L.L.L.L.L.D.D.K.L.x b G.L.J.K.K.K.G.- K.L.L.L.L.L.L.L.L.L.L.L.N.J.L.t.q.d.{ V J.L.",
"L.L.L.r L.L.L.L.A.L.D.L.L.D.n C V.G.J.L.K.L.> L.L.L.L.L.L.L.L.L.L.J.J.K.i.,.*.=.<...z z G.",
"L.L.L.b.L.L.L.L.G.K.L.L.K.L.G.x A V.K.J.K.J.& L.L.L.L.L.L.L.L.L.G.L.q.,.3.y.J.L.0.@.J.s x ",
"L.L.L.b.L.L.L.L.L.L.L.L.L.L.L.L.a z J.G.K.K.+ L.L.G.L.J.K.L.L.G.w.:.a.7.H.L.L.L.L.m.J.B.S ",
"L.L.H.b.L.L.L.L.L.L.L.L.L.L.L.L.D.x x D.J.L.= G.L.L.K.L.K.M.1.8.2.8.K.F.L.L.L.G.G.r L.L.L.",
"L.H.L.b.L.H.L.L.L.L.L.L.L.L.L.L.L.J.z M J.G.3 J.L.L.K.J.t.3.9.&.G.K.L.K.L.V.L.L.L.^ K.J.F.",
"L.L.L.b.L.L.L.S.L.L.L.L.L.L.L.L.J.K.L.z N K.$ K.K.L.&.4.*.:.J.L.G.L.J.G.J.L.G.L.L.W D.K.J.",
"L.L.L.r L.L.L.L.L.L.L.L.L.L.L.L.G.K.V.F.x z ; J.4.4.r.8.J.L.K.J.L.L.L.L.J.L.J.L.K.b.J.L.K.",
"L.L.K.n.L.L.L.L.L.L.L.L.L.L.L.L.L.L.K.J.K.z t s.>.2.L.L.K.L.V.K.K.L.G.D.G.L.K.L.K.^ K.G.L.",
"& - , 9 , - , & & , , & , & & - & > # * 1 ] K [ 1 3 * , X 6 < - & - o , @ & 4 - , 9 & $ * ",
"L.L.L.b.H.L.L.L.L.L.L.L.L.L.L.L.K.L.L.4.r.<.- z h L.V.J.K.K.L.L.L.L.L.J.L.L.F.L.L.r L.L.L.",
"K.J.L.m.K.J.K.L.L.V.L.L.L.F.L.L.A.%.d.p.K.K.= L.x g G.L.J.G.L.K.L.L.K.L.H.K.L.G.L.b.L.L.L.",
"K.L.V.W G.G.L.L.L.G.K.G.J.L.F.<.2.p.B.F.L.L.& L.G.n z F.L.K.L.J.L.G.L.J.L.L.L.J.L.b.L.L.L.",
"L.K.L.r G.L.G.L.L.L.L.J.L.5.t.2.K.L.G.L.L.L.O J.J.G.x N J.K.A.G.G.L.K.F.L.L.K.K.L.b.L.L.L.",
"x G.L./ L.L.J.K.K.L.G.8.3.:.K.L.L.K.J.L.G.L.; L.L.K.L.i z J.L.J.K.K.H.L.L.L.L.L.L.b.L.L.L.",
"b z J.k.D.G.K.L.L.2.3.2.G.L.K.B.D.L.L.L.L.G.& L.L.L.K.K.m N F.G.J.L.K.J.J.F.J.L.L.b.L.L.L.",
"N x x ~ J.V.K.%.&.7.L.L.K.K.G.L.G.V.J.L.L.L.- K.L.D.D.K.L.x b G.L.J.K.K.L.L.L.K.L.b.L.L.L.",
"L.d x U K.>.,.4.L.K.F.F.L.L.G.L.L.L.L.G.G.L.4 K.K.J.D.L.K.D.n h V.G.L.L.F.L.K.L.L.b.L.L.L.",
"L.J.n y } 5.L.L.L.L.J.L.L.J.L.K.L.G.L.L.L.G.5 G.G.K.L.L.L.L.G.x F V.D.J.K.L.J.L.L.b.L.L.L.",
"L.&.7.X.z N L.L.L.L.G.L.J.K.L.G.L.L.L.L.L.L.& L.L.L.L.L.L.L.L.L.x C G.K.J.G.L.K.L.z.G.L.L.",
"t.4.J.z.M x z K.L.L.L.L.L.L.K.L.L.L.L.L.L.L.& L.L.L.L.L.L.L.L.L.L.n z F.L.K.L.L.L.e L.J.L.",
"V.K.L.Q L.N N x G.K.L.G.L.L.G.K.L.L.L.L.L.L.& L.L.L.L.L.L.L.L.L.L.L.x N J.K.Z.G.G.' L.K.K.",
"D.D.L.` K.J.x b n G.L.K.L.K.L.J.L.L.L.L.L.L.- L.L.L.L.L.L.L.L.L.L.G.J.i z J.L.L.H.z.V.L.D.",
"K.L.K.O.J.L.K.i z i K.J.K.G.J.L.L.L.L.L.L.L.& L.L.L.L.L.L.L.L.L.L.L.K.K.b N F.G.L.l.K.J.L.",
"L.K.L.R J.K.G.J.B n N K.D.L.K.G.L.L.L.L.L.L.- L.L.L.L.L.L.L.L.L.L.D.D.K.L.x b G.F.R L.F.J.",
"L.F.J.` K.L.D.G.C.N z b G.K.J.G.L.L.L.L.L.L.& L.L.L.L.L.L.L.L.L.A.L.D.L.L.D.n C L.o.V.J.L.",
"L.L.G.m.G.L.L.K.L.F.B z Z G.L.L.L.L.L.L.L.L.& L.L.L.L.L.L.L.L.L.G.K.L.L.K.L.G.x n c.F.i.q.",
"L.K.L.r L.L.L.L.L.D.K.x x N G.L.L.K.L.D.L.L.* L.L.L.L.L.L.L.L.L.L.G.G.L.J.L.L.L.x I <.3.7.",
"b.n.r b.r r b.b.! m.` ) Y s T x.W m.` ~ l.W 0 z.b.b.b.b.b.b.b.b.z.j.^ ` W ` l.+.e.L P m.~ ",
"L.L.L.r L.L.K.L.F.J.F.K.K.n N x V.K.J.L.L.L.@ J.L.L.L.L.L.L.L.L.K.J.L.K.K.*.4.5.2.c.z a L.",
"L.L.L.b.L.L.D.L.L.L.K.L.G.V.s N A N.L.L.L.J.+ L.L.L.L.L.L.L.L.L.G.L.L.6.&.:.6.K.L.z.J.x N ",
"L.L.L.b.L.L.L.H.L.K.L.K.G.K.J.i n b K.D.A.L.. L.L.L.L.L.L.L.L.L.L.1.3.1.<.J.K.L.G.n.J.L.i "
};
