/* XPM */
static char *_2[] = {
/* columns rows colors chars-per-pixel */
"91 91 171 2 ",
"   c #3C3717",
".  c #2F2F2F",
"X  c #2A342C",
"o  c #32342D",
"O  c #3F382E",
"+  c #3D362E",
"@  c #2D2F3E",
"#  c #3A2B32",
"$  c #28353B",
"%  c #363636",
"&  c #3D3633",
"*  c #333935",
"=  c #353439",
"-  c #38363B",
";  c #353B3C",
":  c gray23",
">  c #3C3C35",
",  c #701C36",
"<  c #403738",
"1  c #403C39",
"2  c #483433",
"3  c #2E412E",
"4  c #38412E",
"5  c #373A41",
"6  c #3B3944",
"7  c #423745",
"8  c #7D0974",
"9  c #3C4043",
"0  c #454545",
"q  c #4A4A4A",
"w  c #7E5575",
"e  c #7F7A67",
"r  c #757D74",
"t  c #797E77",
"y  c #7F7F7F",
"u  c #757D7F",
"i  c #BA0B08",
"p  c #BE2B19",
"a  c #93152A",
"s  c #BF0023",
"d  c #BE092C",
"f  c #BB0130",
"g  c #DD0104",
"h  c #DE010B",
"j  c #DB1205",
"k  c #DF0019",
"l  c #DA0A17",
"z  c #DC1114",
"x  c #E40101",
"c  c #EC0202",
"v  c #E30B04",
"b  c #EC0A00",
"n  c #E50409",
"m  c #EA000A",
"M  c #E90909",
"N  c #F30101",
"B  c #F90005",
"V  c #F4010B",
"C  c #FA000F",
"Z  c #F00B0E",
"A  c #E20015",
"S  c #EB0113",
"D  c #E20813",
"F  c #E1001C",
"G  c #F00211",
"H  c #E20021",
"J  c #DB203B",
"K  c #87054F",
"L  c #A60B45",
"P  c #B82542",
"I  c #B73B43",
"U  c #830A67",
"Y  c #B3464B",
"T  c #AF4551",
"R  c #976A64",
"E  c #847F76",
"W  c #88777D",
"Q  c #847D7B",
"!  c #88797B",
"~  c #7D8377",
"^  c #75837A",
"/  c #7C827C",
"(  c #758A7B",
")  c #82827C",
"_  c #89837D",
"`  c #818375",
"'  c #292584",
"]  c #270DB6",
"[  c #4B0F8B",
"{  c #4D0694",
"}  c #4608B1",
"|  c #4C549D",
" . c #747D84",
".. c #7D7D83",
"X. c #7C7C88",
"o. c #5B4EA0",
"O. c #5D5AA7",
"+. c #555EA1",
"@. c #0301C6",
"#. c #0F01C6",
"$. c #0A0AC3",
"%. c #0606CB",
"&. c #0B03CB",
"*. c #040CCD",
"=. c #0C09CE",
"-. c #1001CE",
";. c #0310CD",
":. c #0304D4",
">. c #0C05D4",
",. c #040AD4",
"<. c #0B0BD4",
"1. c #0404DB",
"2. c #0B04DC",
"3. c #040BDB",
"4. c #0B0BDB",
"5. c #1203D4",
"6. c #1A01D5",
"7. c #110CD6",
"8. c #1203DB",
"9. c #1708DD",
"0. c #0412D7",
"q. c #0A10D6",
"w. c #0310DA",
"e. c #1610DC",
"r. c #0504E2",
"t. c #0A04E3",
"y. c #050DE2",
"u. c #0B0AE2",
"i. c #0B04E8",
"p. c #090AEA",
"a. c #1405E2",
"s. c #120BE3",
"d. c #120AEB",
"f. c #1B09E9",
"g. c #0110E5",
"h. c #1313E7",
"j. c #837D85",
"k. c #897B82",
"l. c #837F8B",
"z. c #8F7E88",
"x. c #927982",
"c. c #6F8D81",
"v. c #738483",
"b. c #7B8284",
"n. c #7F8885",
"m. c #7F8488",
"M. c #768B84",
"N. c #7F8690",
"B. c #818181",
"V. c #8A8182",
"C. c #83838A",
"Z. c #8E8188",
"A. c #898989",
"S. c #938386",
"D. c #848692",
"F. c #EFF6EE",
"G. c #EDFEEC",
"H. c #FCFEE5",
"J. c #FDF5EF",
"K. c #F4FFEF",
"L. c #FEFEEC",
"P. c #ECFDF5",
"I. c #EFF6FF",
"U. c #EEFDFE",
"Y. c #F6F6F5",
"T. c #FDF6F5",
"R. c #F4FDF4",
"E. c #FDFDF5",
"W. c #FEF6FD",
"Q. c #F5FEFD",
"!. c #FEFEFE",
/* pixels */
"m !.T.!.!.!.W.B.!.!.Q.!.!.R.E.!.!.!.!.E.5.=.1.3.!.!.!.!.!.!.!.!.!.!.!.!.!.!.!.!.!.!.!.!.!.: !.!.!.!.!.!.!.!.!.!.N A Q.!.T.U.W.E.Q.!.!.!.!.Q.!.!.!.!.!.!.!.!.!.!.!.!.Q.) !.!.!.!.!.!.!.",
"x x !.!.Q.W.!.^ !.L.E.!.!.!.!.Q.!.!.:.:.3.>.!.!.!.!.!.!.!.!.!.!.!.!.!.!.!.!.!.!.!.W.!.!.!.o !.!.!.!.!.!.!.!.!.!.!.m c L.W.!.E.W.W.!.Q.!.!.!.!.!.!.!.!.!.!.!.!.!.!.!.W.y !.!.!.!.!.!.!.",
"H.m x Q.!.E.!./ !.Q.W.W.!.W.!.W.,.<.2.f.Q.!.E.W.!.!.!.!.!.!.!.!.!.!.!.!.!.!.!.!.!.!.!.!.W.4 !.!.!.!.!.!.!.!.!.!.Q.E.c m !.!.!.R.Q.Q.E.!.E.!.!.!.!.!.!.!.!.!.!.!.!.W.Q.A.Q.!.W.!.!.!.!.",
"!.W.c m !.Q.!.k.!.Q.W.!.!.Q.%.3.4.&.Q.!.E.!.!.Q.!.!.!.!.!.!.!.!.!.!.!.!.!.!.!.!.!.!.Q.!.!.. !.!.!.!.!.!.!.!.!.!.E.T.!.g m !.!.W.!.!.!.!.Q.E.!.!.!.!.!.!.!.!.!.!.!.!.!.t !.!.!.!.!.!.!.",
"!.Q.W.x m !.!.l.W.E.L.!.2.4.2.*.!.!.!.Q.E.E.!.E.!.!.!.!.!.!.!.!.!.!.!.!.!.!.!.!.!.!.!.!.!.: !.!.!.!.!.!.!.!.!.!.!.Q.G.!.x c Q.Q.W.W.!.!.!.E.!.!.!.!.!.!.!.!.!.!.!.!.!.B.!.!.!.!.!.!.!.",
"G.!.Q.!.c N E.^ !.U.4.4.*.1.!.!.!.L.!.W.E.!.!.!.!.!.!.!.!.!.!.!.!.!.!.!.!.!.!.!.!.!.!.!.!.* W.!.!.!.!.!.!.!.!.!.Q.!.W.Q.T.b x L.U.!.!.Q.!.!.Q.!.!.!.!.!.!.!.!.!.!.Y.!.y !.!.T.!.!.!.!.",
"!.W.W.Q.E.N x ~ ,.7.,.t.R.!.Q.W.W.!.!.!.!.!.T.!.!.!.!.!.!.!.!.!.!.!.!.!.!.!.!.!.!.!.!.W.!.% R.!.!.!.!.!.!.!.!.!.!.W.!.W.!.Q.n G H.Q.!.W.Q.!.!.!.!.!.!.!.!.!.!.!.!.!.!.b.!.!.!.!.!.!.!.",
"u C./ ~ ) X.P m d A n l j I ) ..y ) u ) j.t D.b.B.B.B.B.B.B.B.B.B.B.j./ B.B.B.B.j.B./ b.) q C.y B.B.B.B.B.B.B.B.^ V.Q B.b.Q Q z J e c.x.) / W b.B.b.) j.b.Q B.B.B.y Q y y B.B.u B.B.B.",
"E.!.Q.!.1.4.r.c x c c V c x !.!.!.!.!.!.Q.Q.!.E.!.!.!.!.!.!.!.!.!.!.!.!.!.!.!.!.!.!.!.!.!.% !.!.!.!.!.!.!.!.!.!.!.!.!.!.!.!.!.!.c k E.!.W.L.W.Q.!.!.Q.!.W.Q.!.!.!.!.!./ !.!.!.!.!.!.!.",
"W.!.1.%.*.4.W.v N c v !.!.E.Q.W.!.R.E.W.!.!.!.T.!.!.!.!.!.!.!.!.!.!.!.!.!.!.!.!.!.!.!.!.!.% !.!.!.!.!.!.!.!.!.!.!.!.!.!.!.!.!.!.E.m x R.!.Q.!.!.!.R.E.W.!.!.!.T.!.!.!.j.!.!.!.!.!.!.!.",
"<.t.6.<.W.!.G.c !.x h m !.Q.W.Q.W.!.!.R.!.!.!.Q.!.!.!.!.!.!.!.!.!.!.!.!.!.!.!.!.!.!.!.!.!.% !.!.!.!.!.!.!.!.!.!.!.!.!.!.!.!.!.!.!.!.c N W.!.U.E.W.!.!.R.Q.!.Q.Q.!.!.!./ !.!.!.!.!.!.!.",
"0.4.W.Q.!.Q.!.x Q.W.x c c !.E.R.Q.Q.R.!.W.Q.!.!.!.!.!.!.!.!.!.!.!.!.!.!.!.!.!.!.!.!.!.!.!.% !.!.!.!.!.!.!.!.!.!.!.!.!.!.!.!.!.!.!.Q.W.g x W.!.W.Q.R.R.W.!.!.!.!.!.!.!.j.!.!.!.!.!.!.!.",
"W.T.!.!.R.!.W.n R.W.!.x x c !.!.W.!.Q.W.!.R.W.!.!.!.!.!.!.!.!.!.!.!.!.!.!.!.!.!.!.!.!.!.!.% !.!.!.!.!.!.!.!.!.!.!.!.!.!.!.!.!.!.!.!.Q.!.g N R.E.W.!.Q.W.W.R.W.!.!.!.!.B.!.!.!.!.!.!.!.",
"Q.!.E.W.E.!.W.j !.W.E.!.m c g !.!.W.Q.Q.!.E.!.Q.!.!.!.!.!.!.!.!.!.!.!.!.!.!.!.!.!.!.!.!.!.% !.!.!.!.!.!.!.!.!.!.!.!.!.!.!.!.!.!.!.T.E.R.!.c n E.!.W.Q.Q.!.!.!.Q.!.!.!.y !.!.!.!.!.!.!.",
"!.!.Q.!.!.J.E.^ !.R.!.W.!.g c x L.E.!.!.R.!.Q.!.!.!.!.!.!.!.!.!.!.!.!.!.!.!.!.!.!.!.!.!.!.% !.!.!.!.!.!.!.!.!.!.!.!.!.!.!.!.!.!.U.!.T.!.Q.T.m k L.E.W.!.R.!.!.W.!.!.!...!.!.!.!.!.!.!.",
"!.!.!.P.!.!.W.` !.!.!.E.W.!.c n H L.R.W.Q.W.W.!.!.!.!.!.!.!.!.!.!.!.!.!.!.!.!.!.!.!.!.!.!.% !.!.!.!.!.!.!.!.!.!.!.!.!.!.!.!.!.!.E.Q.!.!.!.!.E.c H L.E.W.Q.!.R.!.!.!.!.) !.!.!.!.!.!.!.",
"!.!.!.!.!.!.!.b.!.T.!.Q.W.E.L.F c x E.!.Q.!.!.E.!.!.!.!.Q.Q.!.E.!.!.!.!.!.!.!.!.!.!.!.!.!.% !.!.!.!.!.!.!.!.!.!.!.!.!.!.!.!.!.!.!.!.!.!.!.!.!.!.c k E.E.W.E.!.Q.!.W.!.B.!.Q.E.!.!.!.E.",
"!.!.!.!.!.!.!.Q !.Q.!.R.!.W.E.L.c c x !.!.T.Q.!.!.R.E.W.!.!.!.T.!.!.!.!.!.!.!.!.!.!.!.!.!.% !.!.!.!.!.!.!.!.!.!.!.!.!.!.!.!.!.!.!.!.!.!.!.!.!.!.!.m x R.!.Q.!.!.!.R.!.! !.!.!.T.E.W.!.",
"!.!.!.!.!.!.!.) Q.!.E.!.Q.Q.W.!.E.x x m !.E.T.!.W.!.!.R.!.!.!.Q.!.!.!.!.!.!.!.!.!.!.!.!.!.% !.!.!.!.!.!.!.!.!.!.!.!.!.!.!.!.!.!.!.!.!.!.!.!.!.!.W.!.c N W.!.I.E.!.E.!.r !.!.Q.!.E.!.Q.",
"!.!.!.!.!.!.!...!.W.R.W.W.Q.!.W.!.!.m x x !.!.!.Q.Q.R.!.W.Q.!.!.!.!.!.!.!.!.!.!.!.!.!.!.!.% !.!.!.!.!.!.!.!.!.!.!.!.!.!.!.!.!.!.!.!.!.!.!.!.!.!.!.R.!.g x W.!.!.Q.R.Q.k.!.Q.!.!.!.E.!.",
"!.!.!.!.!.!.!.b.!.!.!.!.W.R.Q.Q.!.W.!.c x N !.W.W.!.Q.W.!.R.W.!.!.!.!.!.!.!.!.!.!.!.!.!.!.% !.!.!.!.!.!.!.!.!.!.!.!.!.!.!.!.!.!.!.!.!.!.!.!.!.!.!.!.!.Q.g N K.E.W.!.Q.z.!.R.W.!.E.!.!.",
"!.!.!.!.!.!.!.Q !.Q.!.Q.R.!.!.T.Q.E.E.!.m x x E.!.W.Q.Q.!.E.!.Q.!.!.!.!.!.!.!.!.!.!.!.!.!.% !.!.!.!.!.!.!.!.!.!.!.!.!.!.!.!.!.!.!.!.!.!.!.!.!.!.W.R.T.Q.!.c n E.!.W.Q.v.!.E.!.Q.!.!.!.",
"!.!.!.!.!.!.!.B.W.!.Q.!.W.E.Q.!.!.Q.T.!.!.x c c L.E.!.!.R.!.Q.!.!.!.!.!.!.!.!.!.!.!.!.!.!.% !.!.!.!.!.!.!.!.!.!.!.!.!.!.!.!.!.!.!.!.!.!.!.!.!.!.Q.!.T.!.Q.T.m k L.E.W.C.Q.!.!.W.Q.Q.9.",
"!.!.!.!.!.!.!.y E.!.!.Q.!.!.!.!.!.!.Q.!.!.E.x c H L.R.W.Q.W.W.!.!.!.!.!.!.!.!.!.!.!.!.!.!.% !.!.!.!.!.!.!.!.!.!.!.!.!.!.!.!.!.!.!.!.!.!.!.!.!.!.E.Q.!.W.!.!.E.c H L.R.k.Q.!.R.!.2.u.@.",
"!.!.!.!.!.!.!.y !.!.!.!.!.!.!.!.!.E.!.U.W.E.L.H c x E.!.!.Q.!.E.!.!.!.!.Q.!.!.E.!.!.!.!.!.% !.!.!.!.!.!.!.!.!.!.!.!.!.!.!.!.!.!.!.!.E.!.!.E.!.!.E.Q.W.!.Q.2.@.y.m c E.b.!.Q.4.4.>.u.!.",
"!.!.!.!.!.!.!.B.!.!.!.!.!.!.!.!.W.!.!.R.!.W.E.L.c c x !.!.E.Q.!.!.Q.E.W.!.Q.!.W.!.!.!.!.!.% !.!.!.!.!.!.!.!.!.!.!.!.!.!.!.!.!.!.!.!.T.!.!.!.E.!.!.!.!.K.W.>.h.=.,.8 s t e.:.3.:.R.Q.L.",
"!.!.!.!.!.!.!.y !.!.!.!.!.!.!.!.!.E.!.Q.Q.Q.W.!.E.x x m !.E.E.!.T.!.!.R.Q.!.Q.!.!.!.!.!.!.% !.!.!.!.!.!.!.!.!.!.!.!.!.!.!.!.!.!.E.Y.!.!.Y.!.!.!.E.E.E.R.Y.!.!.:.1.8.w.] 2.#.T.W.W.W.Q.",
"!.!.!.!.!.!.!.y !.!.!.!.!.!.!.!.!.W.R.W.W.Q.!.W.W.!.N x c !.W.Q.Q.Q.R.W.!.!.!.!.!.!.!.!.!.% !.!.!.!.!.!.!.!.!.!.!.!.!.!.!.!.!.!.!.!.E.!.!.!.T.L.W.Q.!.!.!.!.!.4.,.,.3.[ C !.!.Q.E.!.E.",
"!.!.!.!.!.!.!.B.!.!.!.!.!.!.!.!.!.!.!.W.!.R.R.Q.Q.!.!.c x c !.W.W.!.Q.W.W.R.W.!.!.!.!.!.!.% !.!.!.!.!.!.!.!.!.!.!.!.!.!.!.!.!.!.!.!.E.W.W.L.!.!.Q.E.W.!.W.=.,.:.4.a.4.| m v !.!.W.Q.E.",
"!.!.!.!.!.!.!.y !.!.!.!.!.!.!.!.Q.Q.!.!.R.!.!.!.!.T.E.!.m x g E.!.W.Q.Q.!.E.!.Q.!.!.!.!.!.% !.!.!.!.!.!.!.!.!.!.!.!.!.!.!.!.!.!.E.!.!.!.E.E.!.!.R.!.E.d.:.1.7.4.W.,.5.m.W.x x W.Q.E.Q.",
"!.!.!.!.!.!.!.y !.!.!.!.!.!.!.!.W.!.!.!.W.E.R.!.!.Q.E.!.!.x c c L.E.W.!.R.!.Q.!.!.!.!.!.!.% !.!.!.!.!.!.!.!.!.!.!.!.!.!.!.!.!.!.!.!.!.!.!.!.E.E.!.t.:.:.4.q.K.!.Q.0.r./ E.E.c c !.!.W.",
"!.!.!.!.!.!.!.B.!.!.!.!.!.!.!.!.E.!.Q.Q.!.Q.W.!.!.!.!.Q.W.E.c c F L.E.W.Q.!.T.!.!.!.!.!.!.% !.!.!.!.!.!.!.!.!.!.!.!.!.!.!.!.!.!.E.!.!.E.W.Q.Q.8.<.1.q.,.E.!.W.!.=.3.=.j.Q.Q.!.c c W.L.",
"!.!.!.!.!.!.!.y !.!.!.!.!.!.!.!.!.!.!.!.!.!.!.!.!.E.!.Q.W.E.L.H c x E.!.Q.!.!.E.!.!.!.!.R.; !.E.!.!.E.!.!.E.!.!.!.!.E.!.Q.E.!.!.!.!.!.!.Q.5.4.*.2.8.!.!.!.E.W.!.>.a.Q.B.!.!.W.!.c x !.",
"!.!.!.!.!.!.!.y !.!.!.!.!.!.!.!.!.!.!.!.!.!.!.!.W.Q.!.Q.!.W.E.H.c c x !.!.T.Q.!.!.R.!.W.!.$ !.T.!.!.Y.!.!.!.E.!.K.Q.W.!.!.!.R.!.!.T.Q.d.>.4.:.t.K.Q.E.W.W.!.!.!.R.Q.E.C.W.!.!.!.E.F c ",
"!.!.!.!.!.!.!.B.!.!.!.!.!.!.!.!.!.!.!.!.!.!.!.!.Q.!.!.Q.Q.Q.W.!.E.x x m !.E.T.!.W.!.!.P.!.; Q.!.E.J.!.!.T.!.!.!.W.!.Q.Q.!.W.E.W.!.a.=.:.*.t.Q.R.E.E.!.!.E.!.E.!.E.E.W.C.L.!.E.!.!.E.N ",
"!.!.!.!.!.!.!.y !.!.!.!.!.!.!.!.!.!.!.!.!.!.!.!.!.W.R.!.W.Q.!.W.!.!.m x x !.!.!.Q.R.R.!.W.> !.!.!.Q.!.W.W.!.R.E.E.!.W.!.Q.K.E.2.3.>.=.<.R.!.F.!.W.J.!.!.Q.E.W.Q.W.L.!.B.!.Q.W.E.Q.W.!.",
"!.!.!.!.!.!.!.y !.!.!.!.!.!.!.!.!.!.!.!.!.!.!.!.!.!.Q.!.!.R.W.Q.!.W.!.c x N !.W.W.!.Q.W.W.X !.!.!.!.!.W.!.L.W.!.!.!.W.E.W.s.*.3.>.,.Q.!.!.W.W.Q.!.!.Q.!.!.L.!.W.!.!.!.) !.L.!.!.E.!.T.",
"!.!.!.!.!.!.!.B.!.!.!.!.!.!.!.!.!.!.!.!.!.!.!.!.Q.!.!.!.R.Q.!.E.Q.E.E.!.m x x E.!.W.!.U.Q.* !.!.E.!.E.!.L.E.!.E.Q.!.R.%.e.:.e.1.!.!.!.!.!.!.!.E.!.!.!.R.!.E.Y.!.!.Q.!.r !.E.W.!.!.!.W.",
"!.!.!.!.!.!.!.y !.!.!.!.!.!.!.!.!.!.!.!.!.!.!.!.E.!.Q.!.W.!.E.!.!.Q.T.!.!.x c c L.E.W.!.Q.& !.W.!.E.!.!.!.!.E.Q.!.5.>.u.3.:.!.!.W.H.!.W.R.!.!.!.!.E.!.!.!.!.E.H.!.!.!.) !.!.E.H.Q.Q.!.",
"!.!.!.!.!.!.!.B.!.!.!.!.!.!.!.!.!.!.!.!.!.!.!.!.E.!.Q.W.!.Q.!.!.!.!.Q.!.!.E.x c F L.!.W.Q.+ R.!.!.!.!.E.!.!.Q.8.,.1.4.<.K.!.E.W.E.!.!.Q.!.Q.!.!.!.!.!.W.W.!.!.!.!.!.W.j.W.!.Q.!.W.!.E.",
"!.!.!.!.Q.!.!.Q !.!.!.!.!.!.!.!.!.!.!.!.!.!.!.!.!.!.!.!.!.!.!.!.!.E.!.Q.W.Q.L.H n x !.!.E.* W.!.!.!.!.E.Q.8.4.;.4.8.Q.!.!.!.W.!.!.!.!.!.!.!.!.!.!.!.!.!.!.!.!.!.!.!.!./ !.!.!.!.!.!.!.",
"!.!.!.!.!.!.!.b.!.!.!.!.!.!.!.!.!.!.!.!.!.!.!.!.!.!.!.!.!.!.!.!.W.!.!.R.!.W.E.H.B x c Q.!.+ R.Q.!.T.Q.d.>.>.:.2.R.Q.E.!.W.!.!.!.!.!.!.!.!.!.!.!.!.!.!.!.!.!.!.!.!.W.!./ !.!.!.!.!.!.!.",
"!.!.!.W.!.!.W./ !.!.!.!.!.!.!.!.!.!.!.!.!.!.!.!.!.!.!.!.!.!.!.!.Q.!.Q.!.Q.Q.W.!.H.n N x W.- W.!.!.a.=.>.*.i.Q.R.E.E.W.!.L.!.E.!.!.!.!.!.!.!.!.!.!.!.!.!.!.!.!.!.!.!.!.j.!.!.W.!.!.!.!.",
"!.!.!.!.!.!.!.B.!.!.!.!.!.!.!.!.!.!.!.!.!.!.!.!.!.!.!.!.!.!.!.!.Q.W.K.W.W.Q.!.W.Q.!.c D c 9 E.,.3.:.*.<.R.!.F.W.W.L.!.!.!.Q.W.E.!.!.!.!.!.!.!.!.!.!.!.!.!.!.!.!.!.T.Q.A.R.!.!.!.!.!.!.",
"!.!.Q.!.!.!.!.y !.!.!.!.!.!.!.!.!.!.!.!.!.!.!.!.!.!.!.!.!.!.!.!.!.!.Q.!.W.E.Q.Q.!.W.!.g B , 5.3.<.<.Q.!.!.W.!.!.!.!.Q.E.!.L.!.R.!.!.!.!.!.!.!.!.!.!.!.!.!.!.!.!.!.!.!.y W.!.Q.!.!.!.!.",
"> % : . % % % q % % % % % % % % % % % % % % % % % % % % % % % % ; * > * X * : & 3 # 4 > i K ;.' @ 7 = - & % * % % % 5 X % > = 7 % % % % % % % % % % % % % % % % % > % 0 > % % % % % % ",
"!.W.W.!.!.!.W.B.!.!.!.!.!.!.!.!.!.!.!.!.!.!.!.!.!.!.!.!.!.!.!.!.T.!.Q.!.W.E.R.!.W.!.>.<.g.a c W.!.H.!.!.E.!.!.!.!.E.!.!.!.!.E.H.!.!.!.!.!.!.!.!.!.!.!.!.!.!.!.!.!.!.!.A.!.R.!.!.!.!.!.",
"!.!.!.W.!.!.!./ !.!.!.!.!.!.!.!.!.!.!.!.!.!.!.!.!.!.!.!.!.!.!.!.!.!.Q.W.!.!.W.!.*.t.2.3.E.+ c n Q.!.!.!.E.W.Q.!.!.!.W.!.W.!.!.!.!.!.!.!.!.!.!.!.!.!.!.!.!.!.!.!.!.!.!.u !.!.!.W.!.!.!.",
"!.!.!.!.!.!.!.y !.!.!.!.!.!.!.!.!.!.!.!.!.!.!.!.!.!.W.!.E.!.T.!.!.!.!.!.!.!.>.3.t.$.W.U.W.  !.c c E.!.!.!.!.Q.E.!.!.!.!.!.!.!.!.!.!.!.!.!.!.!.!.!.!.!.!.!.!.!.!.!.!.!.y !.!.!.!.!.!.!.",
"!.!.!.!.!.!.!.B.!.!.!.!.!.!.!.!.!.!.!.!.!.!.!.!.!.W.Q.!.Q.!.!.!.!.W.L.!.1.:.2.%.Q.Q.!.!.!.- Q.!.k m T.R.!.T.W.U.!.!.!.!.!.!.!.!.!.!.!.!.!.!.!.!.!.!.!.!.!.!.!.!.!.!.!.B.!.!.!.!.!.!.!.",
"!.!.!.!.!.!.!.y !.!.!.!.!.!.!.!.!.!.!.!.!.!.!.!.E.!.!.E.!.W.L.!.!.Q.4.4.4.=.!.!.W.!.!.E.Q.$ !.Q.E.n m !.Q.T.T.!.!.!.!.!.!.!.!.!.!.!.!.!.!.!.!.!.!.!.!.!.!.!.!.!.!.!.!.y !.!.!.!.!.!.!.",
"!.!.!.!.!.!.!.y !.!.!.!.!.!.!.!.!.!.!.!.!.!.!.!.E.!.Q.E.!.!.!.!.3.*.1.&.!.W.!.!.W.!.E.Q.W.% !.E.E.R.N x Q.Q.!.!.!.!.!.!.!.!.!.!.!.!.!.!.!.!.!.!.!.!.!.!.!.!.!.!.!.!.!.B.!.!.!.!.!.!.!.",
"!.!.!.!.!.!.!.B.!.!.!.!.!.!.!.!.!.!.!.!.!.!.!.!.!.!.!.E.!.Q.&.4.,.a.!.!.W.E.R.E.E.R.!.!.!.2 K.E.!.!.W.x g !.E.!.!.!.!.!.!.!.!.!.!.!.!.!.!.!.!.!.!.!.!.!.!.!.!.!.!.!.!.b.!.!.!.!.!.!.!.",
"!.!.!.!.!.!.!.y !.!.!.!.!.!.!.!.!.!.!.!.!.!.!.!.W.E.!.Q.f.2.<.,.!.T.!.!.E.!.E.!.!.!.Q.Q.!.5 W.W.E.I.!.W.N c !.W.!.!.!.!.!.!.!.!.!.!.!.!.!.!.!.!.!.!.!.!.!.!.!.!.!.!.!.Q !.!.!.!.!.!.!.",
"!.!.!.!.!.!.!.y !.!.!.!.!.!.!.!.!.!.!.!.!.!.!.!.!.!.<.3.:.>.Q.!.!.!.Q.W.E.!.W.!.E.W.T.!.W.o Q.!.!.!.Q.!.R.x n E.!.!.!.!.!.!.!.!.!.!.!.!.!.!.!.!.!.!.!.!.!.!.!.!.!.!.!.) !.!.!.!.!.!.!.",
"!.!.!.!.!.!.!.B.!.!.!.!.!.!.!.!.!.!.!.!.!.!.!.!.3.1.=.8.R.!.!.!.!.!.!.E.!.Q.!.!.Q.Q.!.E.Q.* !.!.Q.W.E.W.!.E.k c !.!.!.!.!.!.!.!.!.!.!.!.!.!.!.!.!.!.!.!.!.!.!.!.!.!.!...!.!.!.!.!.!.!.",
"v T.!.!.!.W.!.E !.!.W.!.E.W.E.!.E.!.!.!.!.!.&.3.2.a.Q.!.!.!.!.!.!.!.!.!.!.!.!.!.!.!.!.!.!.% !.!.!.R.!.U.W.E.L.H c E.W.!.!.!.Q.E.!.!.!.!.!.!.!.!.!.!.!.!.!.!.!.!.!.!.!.B.!.!.!.!.!.!.!.",
"c m Q.J.!.!.!./ !.W.!.!.!.!.!.!.!.W.L.!.1.:.y.=.K.Q.E.!.W.W.!.!.!.!.!.!.!.!.!.!.!.!.!.!.!.% !.!.W.!.E.Q.!.W.E.H.F m E.Q.!.T.!.U.!.!.!.!.!.!.!.!.!.!.!.!.!.!.!.!.!.!.!.y !.!.!.!.!.!.!.",
"x D N !.E.P.!.b.!.!.!.E.!.W.L.!.!.Q.4.4.4.&.Q.W.E.E.W.!.L.!.E.!.!.!.!.!.!.!.!.!.!.!.!.!.!.% !.!.!.!.!.!.Q.Q.W.!.E.n c !.Q.T.T.!.!.!.!.!.!.!.!.!.!.!.!.!.!.!.!.!.!.!.!.y !.!.!.!.!.!.!.",
"E.c x x !.!.T.j.E.Q.E.E.!.!.Q.!.r.*.1.&.!.!.!.!.W.L.!.!.E.Q.!.R.!.!.!.!.!.!.!.!.!.!.!.!.!.% !.!.!.W.R.!.W.Q.!.W.E.R.N g Q.Q.!.!.!.!.!.!.!.!.!.!.!.!.!.!.!.!.!.!.!.!.!.B.!.!.!.!.!.!.!.",
"T.Q.c c M W.!.( !.!.!.E.Q.Q.&.4.<.a.!.Q.W.E.L.E.!.!.Q.Q.!.L.!.W.!.!.!.!.!.!.!.!.!.!.!.!.!.% !.!.!.!.!.!.!.R.R.Q.W.!.W.x x !.T.!.!.!.!.!.!.!.!.!.!.!.!.!.!.!.!.!.!.!.!.y !.!.!.!.!.!.!.",
"W.!.Q.m c m E.n.W.E.!.Q.f.2.<.,.!.E.W.!.E.!.Q.!.!.!.!.T.!.E.W.!.!.!.!.!.!.!.!.!.!.!.!.!.!.% !.!.Q.Q.!.Q.R.!.W.!.E.U.!.W.N c !.!.!.!.!.!.!.!.!.!.!.!.!.!.!.!.!.!.!.!.!.B.!.!.!.!.!.!.!.",
"!.Q.!.!.x x A W Q.!.7.3.:.>.!.!.!.!.Q.!.E.!.!.!.!.E.!.!.!.!.E.H.!.!.!.!.!.!.!.!.!.!.!.!.!.% !.!.T.W.!.!.W.Q.R.!.!.!.!.!.R.x m E.!.!.!.!.!.!.!.!.!.!.!.!.!.!.!.!.!.!.!.y !.!.!.!.!.!.!.",
"T.Q.!.W.L.x c Y 3.1.=.8.R.!.!.!.!.!.W.E.!.Q.!.W.!.!.W.!.W.!.!.!.!.!.!.!.!.!.!.!.!.!.!.!.!.% !.!.E.!.!.Q.!.!.!.!.Q.W.E.W.Q.E.k c !.!.!.!.!.!.!.!.!.!.!.!.!.!.!.!.!.!.!.B.!.!.!.!.!.!.!.",
"!.W.!.Q.W.!.} f { t.!.Q.E.Q.R.W.!.!.!.!.!.!.!.!.!.!.!.!.!.!.!.!.!.!.!.!.!.!.!.!.!.!.!.!.!.% !.!.!.!.!.!.!.!.!.!.!.T.!.Q.W.E.L.F c E.!.!.!.!.Q.E.!.!.!.!.!.!.!.!.!.!.!.b.!.!.!.!.!.!.!.",
"E.!.R.Q.6.*.$.w N h Q.L.!.W.!.!.!.!.!.!.!.!.!.!.!.!.!.!.!.!.!.!.!.!.!.!.!.!.!.!.!.!.!.!.!.% !.!.!.!.!.!.!.!.!.!.!.Q.!.R.!.W.E.L.k m T.Q.!.T.!.U.!.!.!.!.!.!.!.!.!.!.!.Q !.!.!.!.!.!.!.",
"!.!.:.3.1.4.U./ c c x T.!.!.Q.!.!.!.!.!.!.!.!.!.!.!.!.!.!.!.!.!.!.!.!.!.!.!.!.!.!.!.!.!.!.% !.!.!.!.!.!.!.!.!.!.Q.!.E.!.Q.Q.W.!.E.n c !.W.E.T.!.!.!.!.!.!.!.!.!.!.!.!.B.!.!.!.!.!.!.!.",
",.a.=.&.!.!.W.l.!.n x x !.W.E.!.!.!.!.!.!.!.!.!.!.!.!.!.!.!.!.!.!.!.!.!.!.!.!.!.!.!.!.!.!.% !.!.!.!.!.!.!.!.!.!.!.W.R.W.W.Q.!.W.E.R.N g Q.Q.!.!.!.!.!.!.!.!.!.!.!.!.!.y !.!.!.!.!.!.!.",
"*.:.!.!.T.!.!.u !.Q.N c D R.W.E.!.!.!.!.!.!.!.!.!.!.!.!.!.!.!.!.!.!.!.!.!.!.!.!.!.!.!.!.!.% !.!.!.!.!.!.!.!.!.!.!.!.!.!.W.R.Q.Q.W.!.W.x g !.R.!.!.!.!.!.!.!.!.!.!.!.!.B.!.!.!.!.!.!.!.",
"!.Q.L.!.E.K.Q.) !.Y.W.c c c Q.!.!.!.!.!.!.!.!.!.!.!.!.!.!.!.!.!.!.!.!.!.!.!.!.!.!.!.!.!.!.% !.!.!.!.!.!.!.!.!.!.!.Q.!.Q.R.!.!.T.E.U.!.W.N c !.W.!.!.!.!.!.!.!.!.!.!.!.y !.!.!.!.!.!.!.",
"T.!.E.W.T.!.W._ H.!.!.!.N g N E.!.!.!.!.!.!.!.!.!.!.!.!.!.!.!.!.!.!.!.!.!.!.!.!.!.!.!.!.!.% !.!.!.!.!.!.!.!.!.!.W.!.Q.!.W.E.Q.!.!.!.Q.!.R.x m E.!.!.!.!.!.!.!.!.!.!.!.y !.!.!.!.!.!.!.",
"!.!.R.!.!.Q.!.^ W.!.Q.J.Q.v c m !.!.!.!.!.!.!.!.!.!.!.!.!.!.!.!.!.!.!.!.!.!.!.!.!.!.!.!.!.% !.!.!.!.!.!.!.!.!.!.E.!.!.Q.!.!.!.!.Q.W.E.W.!.E.k c !.!.!.!.!.!.!.!.!.!.!.B.!.!.!.!.!.!.!.",
"!.!.!.!.!.!.!.y Q.E.!.!.!.!.k c N Q.!.R.T.!.R.!.!.!.!.!.!.!.!.!.!.!.!.!.!.!.!.!.!.!.!.!.!.% !.!.!.!.!.!.!.!.!.!.!.!.!.!.!.!.!.!.!.W.!.U.W.E.L.H c E.!.!.!.!.Q.E.!.!.!.y !.!.!.!.!.!.!.",
"!.!.!.!.!.!.!.B.!.!.!.W.Q.E.H.A c m !.E.Q.W.!.R.!.!.!.!.!.!.!.!.!.!.!.!.!.!.!.!.!.!.!.!.!.% !.!.!.!.!.!.!.!.!.!.!.!.!.!.!.!.!.!.!.!.!.R.!.W.E.L.k m R.E.!.T.W.U.!.!.!.B.!.!.!.!.!.!.!.",
"!.!.!.!.!.!.!.y !.Q.R.!.!.W.!.E.m c x Q.!.W.!.!.!.!.!.!.!.!.!.!.!.!.!.!.!.!.!.!.!.!.!.!.!.% !.!.!.!.!.!.!.!.!.!.!.!.!.!.!.!.!.!.Q.!.!.Q.Q.Q.W.!.E.n m W.Q.W.R.!.!.!.!.y !.!.!.!.L.E.Q.",
"!.!.!.!.!.!.!.y !.Q.W.!.T.!.Q.W.E.m c x !.E.!.J.!.!.!.!.!.!.!.!.!.!.!.!.!.!.!.!.!.!.!.!.!.% !.!.!.!.!.!.!.!.!.!.!.!.!.!.!.!.!.!.!.W.K.!.W.Q.!.W.E.R.N n Q.!.W.!.!.!.!.B.!.!.!.!.W.!.!.",
"!.!.!.!.!.!.!.B.!.!.W.!.R.!.W.!.Q.W.g b x !.E.Q.!.!.!.!.!.!.!.!.!.!.!.!.!.!.!.!.!.!.!.!.!.% !.!.!.!.!.!.!.!.!.!.!.!.!.!.!.!.!.!.!.!.Q.W.!.R.Q.Q.!.!.W.x g !.E.!.!.!.!.b.!.!.!.!.L.Y.!.",
"!.!.!.!.!.!.!.y !.Q.W.!.W.Q.E.!.Q.W.E.x c g W.!.!.!.!.!.!.!.!.!.!.!.!.!.!.!.!.!.!.!.!.!.!.% !.!.!.!.!.!.!.!.!.!.!.!.!.!.!.!.!.!.!.Q.!.!.R.!.E.!.E.I.!.W.N c !.W.!.!.!.Q !.!.!.!.!.E.!.",
"!.!.!.!.!.!.!.y W.T.!.Q.Q.Q.!.!.W.R.W.!.m c G Q.!.!.!.!.!.!.!.!.!.!.!.!.!.!.!.!.!.!.!.!.!.% !.!.!.!.!.!.!.!.!.!.!.!.!.!.!.!.!.!.T.!.!.!.W.E.Q.!.!.!.Q.!.R.x m E.!.!.!.) !.!.!.!.W.W.E.",
"!.!.!.!.!.!.!.B.U.!.!.E.!.W.!.!.!.!.Q.Q.!.c c N !.!.!.!.!.!.!.!.!.!.!.!.!.!.!.!.!.!.!.!.!.% !.!.!.!.!.!.!.!.!.!.!.!.!.!.!.!.!.!.E.!.Q.!.!.Q.W.!.Q.W.E.W.Q.E.A c !.!.!...!.!.!.!.U.8.>.",
"!.!.!.!.!.!.!.y !.!.!.!.!.!.!.!.Q.E.!.!.!.!.A c m !.Q.!.W.!.!.Q.!.!.!.!.!.!.!.!.!.!.!.!.!.> !.!.!.!.!.!.!.!.!.!.!.!.!.!.!.!.!.!.!.!.!.!.!.!.!.!.!.Q.!.R.T.Q.W.n m E.Q.Q !.W.R.1.p.4.*.",
"!.Q.W.!.!.Y.!...!.!.!.!.!.!.!.!.!.!.!.W.Q.E.H.A c x !.E.E.!.W.L.!.!.!.!.!.!.!.!.!.!.!.!.!.% !.!.!.!.!.!.!.!.!.!.!.!.!.!.!.!.!.!.!.!.!.!.!.!.!.!.W.W.T.Q.!.E.E.!.c m W.X.!.7.3.>.5.Q.!.",
"!.!.W.!.!.!.!.) !.!.!.!.!.!.!.!.!.Q.R.!.!.W.!.E.x N m E.!.E.Q.!.!.!.!.!.!.!.!.!.!.!.!.!.!.% !.!.!.!.!.!.!.!.!.!.!.!.!.!.!.!.!.!.!.!.!.!.!.!.!.!.!.R.E.!.W.!.P.Q.!.v N O.r.&.*.!.E.!.E.",
"y y A.t y B.y y y y b.y y y y B.V.^ Z./ Q B.v...b.R n T ) X.!  .y B.y B.y y y y B.Q / C.r q j.y y y b.y y y y B.y y b.y y y y B.y y b.y y y y B.j.~ y j.` k.B.Q b.o.U L +.( j.C.B./ / ",
"!.!.Y.!.!.!.!.y !.!.!.!.!.!.!.!.!.!.W.!.Y.!.W.!.W.!.x c x Q.W.!.!.!.!.!.!.!.!.!.!.!.!.!.!.> !.!.!.!.!.!.!.!.!.!.!.!.!.!.!.!.!.!.!.!.!.!.!.!.!.!.!.E.!.!.Q.U.Q.4.*.9.:.p x !.!.W.!.!.W.",
"!.!.!.!.Q.!.!.y !.!.!.!.!.!.!.!.W.Q.W.!.!.R.T.!.!.!.W.N x x Q.!.!.!.!.!.!.!.!.!.!.!.!.!.!.. R.!.!.!.!.!.!.!.!.!.!.!.!.!.!.!.!.!.!.!.!.!.!.!.!.!.!.!.!.R.!.4.=.6.t.!.Q.C.x N W.E.W.!.E.",
"!.!.W.!.!.W.!.y !.!.!.!.!.!.!.!.!.T.!.Q.Q.Q.!.!.E.E.Q.!.x m Z Q.!.!.!.!.!.!.!.!.!.!.!.Q.W.9 !.!.!.!.!.!.!.!.!.!.!.!.!.!.!.!.!.!.!.!.!.!.!.!.!.!.!.Y.W.u.<.-.,.!.!.L.Q.S.W.x D Q.E.!.E.",
"Q.!.!.!.!.!.!.B.!.!.!.!.!.!.!.!.U.!.!.!.!.!.!.!.Q.W.!.!.Q.N c N !.!.!.!.!.!.!.!.!.!.W.!.!.. !.W.!.!.!.!.!.!.!.!.!.!.!.!.!.!.!.!.!.!.!.!.!.!.!.!.!.3.*.p.=.!.Q.Q.!.!.!.y Q.!.c x E.W.!.",
"!.!.!.!.!.!.!.b.!.!.!.!.!.!.!.!.!.!.!.!.!.!.!.!.Q.E.!.!.!.!.A c n L.!.!.!.L.Q.E.!.!.!.!.!.% !.!.!.!.!.!.!.!.!.!.!.!.!.!.!.!.!.!.!.W.L.Q.W.!.U.>.3.2.a.E.!.!.!.E.W.R.!.M.W.E.L.H c L.W.",
"!.!.!.!.!.!.!.Q !.!.!.!.!.!.!.!.!.!.!.!.!.!.!.!.!.!.E.W.U.E.H.A m n R.!.!.W.W.!.!.!.!.!.!.% !.!.!.!.!.!.!.!.!.!.!.!.!.!.!.!.!.!.E.!.!.R.!.>.t.4.>.Q.R.!.!.J.!.!.!.!.!.^ !.W.E.H.x S K.",
"!.!.!.!.!.!.!.) !.!.!.!.!.!.!.!.!.!.!.!.!.!.!.!.!.!.Q.!.!.W.!.E.c x V W.!.L.U.!.!.!.!.!.!.% !.!.!.!.!.!.!.!.!.!.!.!.!.!.!.!.!.!.!.!.!.2.>.>.4.Q.E.!.!.E.!.!.L.Q.!.!.!.b.U.!.W.!.!.m M "
};
